<?xml version="1.0" standalone="no"?>
<!DOCTYPE svg PUBLIC "-//W3C//DTD SVG 20010904//EN"
 "http://www.w3.org/TR/2001/REC-SVG-20010904/DTD/svg10.dtd">
<svg version="1.0" xmlns="http://www.w3.org/2000/svg"
 width="1273.000000pt" height="1280.000000pt" viewBox="0 0 1273.000000 1280.000000"
 preserveAspectRatio="xMidYMid meet">
<g transform="translate(0.000000,1280.000000) scale(0.100000,-0.100000)"
fill="#ff5722" stroke="none">
<path d="M6638 12785 c-48 -8 -167 -30 -265 -49 -253 -50 -350 -63 -583 -78
-303 -19 -341 -17 -425 19 -95 42 -135 52 -236 59 -145 11 -361 -36 -580 -126
l-72 -30 -217 0 c-390 0 -643 -32 -852 -109 -71 -27 -178 -53 -388 -96 -394
-80 -414 -86 -603 -203 -139 -86 -221 -128 -301 -152 -34 -11 -128 -53 -210
-95 -358 -181 -637 -380 -926 -661 -74 -72 -218 -203 -320 -291 -229 -198
-311 -284 -378 -399 -49 -83 -120 -257 -150 -361 -24 -88 -27 -114 -27 -263 0
-161 1 -167 34 -263 l34 -98 -76 -157 c-140 -289 -135 -345 45 -526 145 -146
146 -147 79 -300 -66 -150 -100 -283 -108 -411 -7 -116 5 -197 46 -324 39
-119 55 -147 122 -213 105 -103 267 -160 448 -157 49 1 97 -4 108 -10 28 -14
50 -51 79 -129 74 -199 122 -272 224 -340 33 -23 85 -50 116 -61 56 -22 260
-66 444 -96 105 -18 105 -18 160 -70 146 -140 331 -206 575 -207 67 0 163 8
216 17 l97 17 107 -26 c65 -16 135 -26 180 -26 66 0 81 -4 142 -37 212 -115
289 -137 468 -137 161 0 314 40 431 113 l45 28 57 -20 c72 -24 227 -19 312 11
70 24 176 78 216 109 30 23 34 23 70 9 65 -24 124 -26 233 -8 l103 18 15 -23
c12 -17 16 -58 18 -161 2 -75 8 -271 14 -435 13 -321 4 -550 -26 -722 -8 -49
-18 -140 -22 -202 -8 -139 -17 -153 -101 -153 -34 0 -105 -14 -180 -35 -68
-19 -134 -35 -145 -35 -27 0 -109 27 -307 101 -315 117 -458 138 -653 94 -33
-7 -107 -16 -165 -19 -156 -8 -262 -47 -305 -113 -23 -35 -66 -49 -170 -57
-81 -6 -100 -11 -191 -56 -65 -32 -113 -50 -137 -50 -108 0 -241 -55 -320
-133 -152 -148 -140 -342 26 -428 20 -11 80 -31 133 -45 52 -14 123 -36 157
-49 119 -44 212 -42 377 11 71 22 82 23 107 11 84 -42 259 -50 408 -18 87 19
91 19 115 1 50 -35 130 -70 192 -85 134 -32 329 -9 434 49 l43 24 53 -21 c45
-17 76 -21 203 -22 116 -1 158 -5 188 -18 20 -9 53 -24 73 -32 35 -14 36 -17
31 -53 -18 -113 -418 -2107 -424 -2113 -13 -12 -105 -28 -122 -21 -9 3 -38 29
-66 57 -107 109 -287 215 -441 260 -94 27 -245 34 -317 14 -31 -8 -42 -7 -65
8 -51 35 -87 45 -172 50 -63 3 -104 0 -158 -15 l-72 -19 -29 46 c-37 61 -121
142 -202 197 -224 149 -541 195 -782 112 -183 -62 -341 -211 -414 -388 l-28
-68 -66 -6 c-69 -6 -148 -30 -216 -65 -62 -31 -161 -128 -190 -185 -31 -61
-32 -62 -95 -70 -27 -4 -84 -19 -127 -35 -269 -95 -436 -301 -415 -513 12
-126 91 -244 201 -298 29 -14 54 -34 57 -45 13 -47 5 -92 -25 -140 -63 -100
-73 -167 -38 -260 42 -113 181 -216 316 -234 31 -5 115 -4 186 2 112 9 133 8
163 -6 19 -9 34 -21 34 -25 0 -17 136 -71 220 -88 107 -21 328 -14 474 15 61
13 104 17 110 12 23 -19 124 -51 196 -62 47 -7 120 -9 195 -5 95 5 136 3 190
-10 89 -21 229 -14 340 17 44 12 87 21 95 21 214 -19 305 -13 442 30 64 20 68
20 135 3 88 -22 248 -21 410 3 l122 18 88 -22 c187 -47 345 -53 788 -28 l300
17 185 -31 c577 -98 958 -95 1218 9 89 35 121 36 170 5 63 -41 113 -49 252
-40 69 5 168 7 220 6 52 -1 199 -3 325 -4 208 -1 238 1 310 20 106 29 212 82
272 136 l48 44 53 -30 c37 -21 83 -35 157 -48 76 -13 117 -26 152 -47 51 -31
130 -64 203 -85 28 -8 103 -12 195 -12 154 0 206 9 335 55 l56 20 100 -20 c55
-11 140 -34 190 -50 140 -46 284 -66 474 -65 183 1 256 13 362 63 98 45 144
83 178 151 31 62 44 73 97 83 58 11 202 90 283 154 117 94 205 221 241 348 19
68 16 224 -5 305 -30 111 -73 189 -145 261 -37 37 -82 72 -103 79 -37 14 -38
15 -38 65 0 193 -135 425 -323 553 -108 75 -294 142 -393 142 -39 0 -45 4 -79
49 -94 129 -326 210 -511 181 -37 -6 -71 -13 -75 -15 -4 -3 -31 11 -61 31
-116 79 -242 110 -408 101 -238 -13 -467 -108 -627 -258 -68 -65 -124 -92
-151 -75 -18 11 -139 -15 -198 -44 -33 -16 -76 -45 -95 -63 -28 -27 -45 -35
-84 -39 -28 -2 -87 -21 -133 -42 l-82 -37 -68 28 c-65 27 -72 28 -249 28 -166
0 -183 1 -183 17 0 9 -9 101 -20 205 -75 712 -120 1317 -120 1613 l0 115 75
24 c47 14 106 44 157 78 77 52 85 55 127 49 24 -3 81 -22 125 -42 133 -59 186
-75 279 -87 109 -14 196 -2 360 47 l117 36 128 -16 c176 -23 453 -24 552 -1
102 23 214 80 271 137 144 144 74 387 -126 445 -46 14 -55 21 -65 49 -16 49
-86 113 -166 152 -39 19 -75 34 -81 34 -5 0 -30 24 -56 54 -32 37 -68 65 -110
85 -62 31 -175 61 -233 61 -18 0 -60 13 -95 30 -181 84 -417 92 -560 20 -22
-12 -77 -48 -122 -82 -45 -33 -92 -64 -104 -69 -13 -5 -90 -9 -171 -10 -134
-1 -153 1 -188 20 -21 11 -56 27 -76 35 -62 24 -71 49 -57 158 7 60 13 325 16
749 3 361 8 661 12 668 5 8 29 2 82 -23 117 -54 197 -71 329 -70 98 1 127 5
195 28 61 21 84 25 101 17 12 -5 50 -15 83 -21 69 -12 167 0 240 32 l44 19
201 -45 c321 -72 512 -94 673 -77 236 25 379 92 479 225 24 32 48 64 52 71 5
10 29 3 95 -30 140 -68 228 -89 382 -90 110 0 140 3 197 23 130 45 224 136
278 270 25 63 29 67 61 70 172 13 384 63 518 121 324 139 460 370 406 686 -27
154 -31 140 58 179 212 93 362 216 428 351 32 66 34 75 33 170 -1 118 -18 164
-116 313 -59 90 -61 94 -50 130 6 20 14 57 17 82 6 48 28 80 55 80 10 0 50 16
89 36 206 103 326 340 280 555 -55 258 -307 566 -684 839 -93 67 -103 77 -140
148 -90 172 -201 318 -360 477 -207 208 -481 407 -716 522 -59 29 -97 56 -120
83 -178 215 -340 331 -574 410 -171 58 -229 64 -570 65 l-310 0 -75 37 c-141
68 -332 137 -475 170 -75 17 -133 21 -345 24 -492 8 -841 65 -1158 188 -78 31
-175 65 -215 76 -95 27 -230 33 -339 15z"/>
</g>
</svg>
