<?xml version="1.0" standalone="no"?>
<!DOCTYPE svg PUBLIC "-//W3C//DTD SVG 20010904//EN"
 "http://www.w3.org/TR/2001/REC-SVG-20010904/DTD/svg10.dtd">
<svg version="1.0" xmlns="http://www.w3.org/2000/svg"
 width="1558.000000pt" height="1558.000000pt" viewBox="0 0 1558.000000 1558.000000"
 preserveAspectRatio="xMidYMid meet">
<metadata>
Created by potrace 1.14, written by Peter Selinger 2001-2017
</metadata>
<g transform="translate(0.000000,1558.000000) scale(0.100000,-0.100000)"
fill="#000000" stroke="none">
<path d="M20 11500 c-9 -6 -12 -833 -14 -3707 l-1 -3700 70 -3 c223 -8 1957 4
1973 14 9 5 12 434 12 1706 0 1410 2 1699 13 1703 27 10 28 9 147 -218 35 -66
71 -134 81 -151 9 -17 21 -40 27 -50 18 -37 44 -86 83 -157 22 -40 53 -99 70
-132 17 -33 40 -78 53 -100 22 -40 96 -180 184 -345 24 -47 57 -107 72 -135
15 -27 53 -99 85 -160 32 -60 70 -132 85 -160 15 -27 53 -99 85 -160 32 -60
70 -132 85 -160 15 -27 51 -95 80 -150 29 -55 65 -122 80 -150 15 -27 58 -108
95 -180 38 -71 79 -147 92 -167 13 -21 23 -43 23 -49 0 -6 8 -23 18 -37 10
-15 29 -47 41 -72 13 -25 40 -76 61 -115 20 -38 61 -115 90 -170 29 -55 65
-122 80 -150 15 -27 47 -87 71 -132 30 -57 49 -83 62 -83 13 0 62 91 206 383
104 210 286 580 406 822 120 242 286 580 370 750 147 299 553 1121 686 1390
51 102 69 131 87 133 l22 3 0 -1749 c0 -1388 3 -1752 13 -1760 12 -10 1342
-16 1378 -6 9 3 19 17 23 32 9 41 37 165 41 182 14 63 47 200 52 220 3 14 7
30 8 35 2 6 7 28 13 50 6 22 13 51 16 65 4 24 13 61 77 330 17 69 43 181 59
250 16 69 45 192 65 274 20 82 38 157 40 166 5 25 34 149 50 210 8 30 16 66
19 80 2 14 13 63 25 110 11 47 34 144 51 215 17 72 32 137 34 145 15 58 68
290 72 310 3 14 9 39 14 55 12 39 5 89 -17 128 -22 37 -42 47 -763 395 -69 33
-208 100 -310 149 -102 50 -202 98 -223 108 -53 25 -90 83 -89 139 0 37 22 84
140 298 77 139 154 277 171 306 17 29 31 55 31 57 0 2 52 97 116 212 64 114
131 235 149 268 18 33 54 98 80 145 26 47 63 114 83 150 19 36 43 79 53 97 10
18 34 61 53 95 19 35 134 243 255 462 122 220 221 403 221 408 0 4 5 8 10 8 6
0 10 4 10 10 0 5 42 85 93 177 52 93 111 200 132 238 21 39 55 101 76 138 22
38 39 70 39 72 0 2 13 26 29 53 28 47 54 93 122 220 18 31 51 91 74 132 92
164 114 209 107 213 -4 2 -598 3 -1320 3 l-1313 -1 -14 -25 c-8 -14 -40 -79
-71 -145 -31 -66 -75 -158 -97 -205 -22 -47 -57 -121 -77 -165 -21 -44 -59
-125 -85 -180 -26 -55 -60 -127 -75 -160 -15 -33 -52 -112 -83 -175 -30 -63
-69 -146 -87 -185 -80 -171 -151 -322 -269 -569 -39 -82 -71 -150 -71 -151 0
-2 -34 -74 -76 -161 -42 -88 -85 -179 -96 -204 -12 -25 -48 -101 -81 -170 -32
-69 -72 -153 -87 -186 -16 -34 -48 -101 -71 -150 -23 -49 -61 -129 -84 -179
-23 -49 -66 -139 -95 -200 -29 -60 -65 -137 -80 -170 -49 -106 -169 -359 -187
-395 -24 -47 -48 -50 -66 -8 -8 18 -38 83 -67 143 -82 174 -115 243 -165 350
-26 55 -64 136 -85 180 -21 44 -57 121 -80 170 -23 50 -57 122 -75 160 -18 39
-51 108 -73 155 -89 190 -126 268 -157 335 -48 102 -106 227 -158 335 -25 52
-61 130 -81 173 -20 42 -52 112 -72 155 -20 42 -54 115 -76 162 -90 189 -132
278 -158 335 -15 33 -51 110 -80 170 -29 61 -65 138 -80 171 -16 34 -48 101
-71 150 -23 49 -98 208 -166 354 -69 146 -129 270 -134 277 -8 9 -267 11
-1053 11 -574 0 -1049 -4 -1056 -8z"/>
<path d="M9009 11506 c0 -1 -2 -8 -4 -16 -2 -8 -18 -73 -35 -145 -18 -71 -33
-137 -35 -146 -2 -8 -10 -44 -19 -80 -21 -88 -77 -320 -81 -341 -2 -9 -17 -74
-34 -145 -17 -70 -33 -137 -35 -148 -2 -11 -13 -56 -25 -100 -11 -44 -22 -91
-25 -105 -6 -28 -6 -28 -36 -155 -12 -49 -23 -97 -25 -105 -2 -8 -15 -64 -30
-125 -14 -60 -28 -119 -31 -130 -4 -23 -41 -178 -51 -215 -8 -34 -5 -20 -57
-243 -26 -108 -49 -203 -51 -210 -2 -6 -7 -23 -9 -37 -3 -14 -10 -43 -15 -65
-19 -77 -20 -96 -5 -138 11 -33 26 -50 64 -75 27 -18 51 -32 53 -32 5 0 173
-80 482 -230 94 -45 206 -99 250 -120 352 -165 494 -240 524 -277 46 -56 43
-100 -15 -210 -50 -94 -328 -598 -344 -623 -5 -8 -18 -31 -28 -50 -26 -50 -77
-143 -127 -230 -23 -41 -58 -104 -77 -140 -40 -72 -46 -84 -180 -325 -52 -93
-109 -196 -126 -227 -18 -32 -45 -82 -61 -110 -16 -29 -96 -174 -178 -323 -82
-148 -167 -301 -188 -340 -21 -38 -49 -88 -61 -110 -13 -22 -43 -76 -67 -120
-62 -115 -363 -659 -441 -798 -36 -65 -66 -120 -66 -122 0 -2 -20 -38 -45 -79
-25 -42 -45 -78 -45 -81 0 -2 -16 -31 -35 -64 -19 -32 -35 -63 -35 -68 0 -6
370 -8 898 -7 493 2 1115 3 1382 3 287 1 491 5 500 11 13 8 15 234 15 1927 0
1055 4 1924 8 1931 15 23 45 12 79 -30 18 -24 37 -48 43 -55 14 -17 26 -32 60
-78 16 -22 35 -47 42 -55 7 -8 64 -82 128 -165 64 -82 127 -163 140 -180 42
-55 180 -232 205 -265 14 -18 77 -99 140 -180 63 -81 234 -302 380 -490 146
-188 302 -390 348 -449 105 -135 117 -151 322 -416 93 -121 175 -227 183 -235
7 -8 42 -53 78 -100 35 -46 69 -91 76 -100 6 -8 31 -40 55 -70 43 -55 259
-335 310 -400 49 -65 337 -435 345 -445 5 -5 31 -39 58 -75 28 -36 55 -68 60
-72 6 -4 465 -8 1022 -8 906 0 1013 2 1027 16 15 14 16 362 16 3687 0 2147 -4
3678 -9 3686 -8 12 -158 14 -1013 14 -553 0 -1010 -3 -1016 -7 -9 -5 -12 -471
-12 -1930 0 -1697 -2 -1925 -15 -1936 -22 -18 -42 -1 -134 120 -44 58 -84 110
-89 116 -5 5 -87 111 -183 235 -95 123 -178 229 -184 236 -12 15 -14 17 -95
123 -36 47 -70 92 -77 100 -18 23 -405 522 -433 560 -14 19 -43 56 -65 84 -22
28 -71 92 -110 142 -38 50 -146 190 -240 310 -93 120 -182 234 -197 254 -32
43 -224 289 -241 310 -6 8 -38 49 -69 90 -32 41 -86 111 -120 156 -35 44 -73
94 -86 110 -12 16 -64 83 -115 149 -52 66 -203 262 -337 435 -133 173 -248
321 -255 328 -10 11 -146 14 -744 16 -402 1 -731 2 -732 2z"/>
</g>
</svg>
