<?xml version="1.0" standalone="no"?>
<!DOCTYPE svg PUBLIC "-//W3C//DTD SVG 20010904//EN"
 "http://www.w3.org/TR/2001/REC-SVG-20010904/DTD/svg10.dtd">
<svg version="1.0" xmlns="http://www.w3.org/2000/svg"
 width="501.000000pt" height="501.000000pt" viewBox="0 0 501.000000 501.000000"
 preserveAspectRatio="xMidYMid meet">
<metadata>
Created by potrace 1.14, written by Peter Selinger 2001-2017
</metadata>
<g transform="translate(0.000000,501.000000) scale(0.100000,-0.100000)"
fill="#000000" stroke="none">
<path d="M2993 4773 c-11 -11 -44 -60 -73 -109 -29 -49 -73 -119 -97 -156 -24
-37 -43 -70 -43 -73 0 -4 -13 -25 -29 -48 -16 -23 -73 -114 -126 -202 -54 -88
-108 -176 -120 -195 -100 -155 -918 -1496 -922 -1511 -3 -10 0 -32 7 -48 9
-24 55 -52 258 -162 449 -242 438 -235 451 -267 8 -20 8 -39 -3 -77 -29 -106
-247 -862 -257 -890 -5 -16 -48 -165 -95 -330 -48 -165 -90 -311 -94 -325 -14
-50 7 -106 53 -137 38 -26 89 -30 110 -9 8 8 103 160 212 338 109 178 208 339
220 358 67 102 335 544 335 551 0 5 5 9 10 9 6 0 10 5 10 10 0 6 18 38 40 71
22 33 40 63 40 65 0 3 9 17 19 32 11 15 133 213 273 440 183 299 252 421 251
440 -4 38 -34 62 -173 137 -69 37 -147 80 -175 95 -27 15 -81 44 -120 65 -38
21 -95 51 -125 68 -96 52 -116 66 -127 89 -11 26 -19 0 238 888 195 673 185
640 205 720 16 61 16 68 0 100 -32 67 -115 101 -153 63z"/>
</g>
</svg>
